<?xml version="1.0" encoding="UTF-8"?>
<svg width="24px" height="24px" viewBox="0 0 24 24" version="1.1" xmlns="http://www.w3.org/2000/svg" xmlns:xlink="http://www.w3.org/1999/xlink">
    <title>告警</title>
        <g id="跨省切片实例拓扑_选中" transform="translate(-724.000000, -366.000000)">
            <g id="拓扑" transform="translate(22.000000, 192.000000)">
                <g id="拓扑图" transform="translate(95.000000, 97.000000)">
                    <g id="传输" transform="translate(350.000000, 22.000000)">
                        <g id="告警" transform="translate(259.000000, 57.000000)">
                            <g id="ziyuan" transform="translate(5.000000, 4.000000)" fill="white" fill-rule="nonzero">
                                <path d="M6.33147405,9.54944613 C6.20643044,9.54346679 6.08421014,9.58889422 5.99176751,9.67570991 C5.89932488,9.7625256 5.84425341,9.88359826 5.83869853,10.0122266 C5.83322226,10.2363782 5.73981537,10.4487168 5.57973583,10.6009173 C5.41965628,10.7531177 5.20652208,10.8322324 4.98883929,10.8202561 C4.54563687,10.8410668 4.16921752,10.4899852 4.14612172,10.0342638 C4.14061237,9.90429109 4.08454906,9.78204921 3.99053544,9.69501946 C3.89652182,9.60798971 3.77244706,9.56347521 3.64620452,9.5714833 C3.38448981,9.55895344 3.16164563,9.76524348 3.14628731,10.0342638 C3.19633401,11.0309462 4.01957207,11.798937 4.98883929,11.7531628 C5.9581065,11.798937 6.78134456,11.0309462 6.83139126,10.0342638 C6.82588191,9.90429109 6.76981861,9.78204921 6.67580498,9.69501946 C6.58179136,9.6079897 6.45771659,9.5634752 6.33147405,9.5714833 L6.33147405,9.54944613 Z M9.68091931,7.99949876 C8.95834966,7.51200996 8.5212765,6.68459715 8.5168264,5.79578212 L8.5168264,4.11361175 C8.44390764,2.53993532 7.3297876,1.22376229 5.82441518,0.932914056 L5.70300672,0.896185446 C5.71783965,0.823520415 5.71783965,0.74847882 5.70300672,0.675813788 C5.67315664,0.293232464 5.36198728,-0.0012226625 4.98883929,3.50756671e-06 C4.61569129,-0.0012226625 4.30452193,0.293232464 4.27467185,0.675813788 C4.27429386,0.75387587 4.2888538,0.831251535 4.3175219,0.903531168 C3.78590692,1.00178683 3.2828892,1.22280766 2.846337,1.54995472 C2.01576564,2.12844487 1.51399925,3.08927412 1.50370222,4.12095747 L1.50370222,5.81781928 C1.49259689,6.70667753 1.05390648,7.53208805 0.332467645,8.02153592 C0.0627870428,8.17985479 -0.0623192544,8.51074818 0.0325173214,8.81487391 C0.148141897,9.11552716 0.432373847,9.31140358 0.746684754,9.30710883 L9.21671047,9.30710883 C9.5298213,9.30729083 9.81201181,9.11282126 9.9308779,8.81487391 C10.0332539,8.51723982 9.92400999,8.18621827 9.66663595,8.0141902 L9.68091931,7.99949876 Z" id="形状"></path>
                            </g>
                        </g>
                    </g>
                </g>
            </g>
        </g>
</svg>