<?xml version="1.0" encoding="UTF-8"?>
<svg width="40px" height="40px" viewBox="0 0 40 40" version="1.1" xmlns="http://www.w3.org/2000/svg" xmlns:xlink="http://www.w3.org/1999/xlink">
    <title>云3</title>
    <g id="山东移动" stroke="none" stroke-width="1" fill="none" fill-rule="evenodd">
        <g id="图标合集" transform="translate(-120.000000, -520.000000)">
            <g id="编组-13" transform="translate(120.000000, 520.000000)">
                <rect id="形状结合" opacity="0.200000003" x="0" y="0" width="40" height="40"></rect>
                <path d="M22.5806452,3 C24.8283951,3 26.8690916,3.71500874 28.3440843,4.89078863 C29.7275545,5.99361199 30.6129032,7.50835334 30.6129032,9.2 C30.6129032,9.53669798 30.57783,9.86638783 30.5108672,10.1870482 C30.851892,10.1716647 31.1979674,10.1749558 31.5475186,10.1978601 C33.6545999,10.3359263 35.5434649,11.1640871 36.8989899,12.433541 C38.1943472,13.6466476 39,15.2664284 39,17.0545455 C39,18.2378353 38.6472983,19.3490136 38.0322377,20.3154657 C37.3770024,21.3450447 36.4262707,22.210609 35.2840788,22.8341104 C35.033318,22.970996 34.7777347,23.0938094 34.5187081,23.202104 C34.6293985,23.4637895 34.7247824,23.7295735 34.8051235,23.9982951 C35.0159013,24.7032968 35.1290323,25.4482281 35.1290323,26.2181818 C35.1290323,28.46655 34.1620322,30.4992701 32.6070129,31.971732 C31.0317087,33.4634019 28.8543134,34.3818182 26.4516129,34.3818182 C25.1873737,34.3818182 23.9857813,34.1277498 22.901249,33.6694886 C22.6362059,33.5574966 22.3750344,33.4319912 22.118675,33.293156 C21.9895678,33.5469417 21.8444544,33.7930529 21.6840756,34.0298317 C20.4703825,35.8216951 18.4360294,37 16.1290323,37 C14.2689308,37 12.5855994,36.2339496 11.3668509,34.9974739 C10.1429136,33.7557338 9.38709677,32.0399554 9.38709677,30.1454545 C9.38709677,29.8341755 9.40750131,29.5277213 9.44688388,29.2274654 C9.13678,29.2162382 8.82373717,29.1915177 8.5088428,29.1528933 C6.34836153,28.887892 4.43063373,28.0088563 3.06439466,26.7293687 C1.79107837,25.5369035 1,23.9924243 1,22.2909091 C1,21.0410314 1.42720775,19.8736287 2.16025639,18.873106 C2.95275157,17.791446 4.09867462,16.9042294 5.4621374,16.3019699 C5.90844177,16.1048314 6.36161749,15.9454854 6.81585127,15.8252341 C6.46152115,15.5305008 6.14540314,15.1867229 5.87017189,14.8036952 C5.23807366,13.9240308 4.87096774,12.9060097 4.87096774,11.8181818 C4.87096774,10.1265352 5.75631652,8.61179381 7.13978668,7.50897045 C8.61477938,6.33319056 10.6554759,5.61818182 12.9032258,5.61818182 C13.6750216,5.61818182 14.4220334,5.70263316 15.1303568,5.86106539 C15.3201048,5.90350674 15.5101028,5.95193397 15.7002691,6.00619434 C15.8207622,5.85459533 15.9464303,5.70917169 16.0770146,5.57035317 C17.558658,3.99528207 19.9276938,3 22.5806452,3 Z" id="形状结合" stroke="#455A74" stroke-width="2" fill="#FFFFFF"></path>
            </g>
        </g>
    </g>
</svg>