<?xml version="1.0" encoding="UTF-8"?>
<svg width="40px" height="40px" viewBox="0 0 40 40" version="1.1" xmlns="http://www.w3.org/2000/svg" xmlns:xlink="http://www.w3.org/1999/xlink">
    <title>云2</title>
    <g id="山东移动" stroke="none" stroke-width="1" fill="none" fill-rule="evenodd">
        <g id="图标合集" transform="translate(-40.000000, -520.000000)">
            <g id="编组-13" transform="translate(40.000000, 520.000000)">
                <rect id="形状结合" opacity="0.200000003" x="0" y="0" width="40" height="40"></rect>
                <path d="M25.5555556,7 C27.6448093,7 29.5879197,7.56889221 31.203945,8.5488818 C32.8467548,9.54511409 34.1519045,10.9661756 34.9170087,12.6436831 C34.9948547,12.8143621 35.0670309,12.9875222 35.1336214,13.1626831 C35.308986,13.1681519 35.4852758,13.1853987 35.6614744,13.2149432 C36.6154857,13.3749092 37.4544291,13.8765465 38.0526997,14.5892386 C38.6440708,15.2937116 39,16.2050392 39,17.2 C39,18.1379375 38.683765,19.0015664 38.1520364,19.6876326 C37.6106126,20.3862081 36.8462599,20.9013661 35.965952,21.1216532 L35.965952,21.1216532 L34.1812233,21.5682615 L35.5266638,22.8230544 C36.2955515,23.5401392 36.7777778,24.5173758 36.7777778,25.6 C36.7777778,26.7054042 36.2751108,27.7006663 35.4786876,28.4231814 C34.6452854,29.1792439 33.4921337,29.64 32.2222222,29.64 C31.3516927,29.64 30.5367087,29.4235536 29.8411778,29.0438891 C29.2135274,28.7012781 28.6450584,28.2049593 28.1940977,27.5735397 C28.4364118,28.2381078 28.5054174,28.9921025 28.3761285,29.7544225 C28.2159569,30.6988346 27.7726766,31.5308384 27.1419832,32.120515 C26.5598231,32.6648146 25.8157021,33 25,33 C23.9049052,33 22.9441314,32.3978789 22.3217886,31.4967877 C22.1319027,31.2218515 21.9792022,30.9273056 21.869655,30.6216424 C21.5862121,30.8351873 21.2952434,31.0280141 20.999006,31.1990261 C19.6436432,31.98145 17.9479894,32.44 16.1111111,32.44 C14.1113645,32.44 12.2784702,31.8967634 10.8699036,30.9830223 C9.53816588,30.1191203 8.58211817,28.9223919 8.30422336,27.5423123 L8.30422336,27.5423123 L8.11295811,26.5924519 L7.15753509,26.7536473 C6.81933462,26.8107073 6.46938583,26.84 6.11111111,26.84 C4.67485514,26.84 3.36922179,26.3701098 2.42616076,25.5923416 C1.55966517,24.8777191 1,23.8974599 1,22.8 C1,21.9491031 1.33737823,21.1660752 1.89380785,20.5250244 C2.51050886,19.8145362 3.3918956,19.2762662 4.41283541,18.989984 L4.41283541,18.989984 L5.76927858,18.6096232 L4.96272588,17.4545971 C4.56527256,16.885423 4.33333333,16.225578 4.33333333,15.52 C4.33333333,14.4225401 4.89299851,13.4422809 5.75949409,12.7276584 C6.70255513,11.9498902 8.00818847,11.48 9.44444444,11.48 C10.3489015,11.48 11.2005338,11.6666189 11.9437883,11.9987883 C12.4146735,12.2092326 12.8710504,12.4910549 13.2957036,12.8404917 C13.19478,12.346941 13.2001486,11.8287004 13.323424,11.3223753 C13.5102472,10.5550428 13.9501413,9.8878911 14.5486343,9.41548722 C15.1323459,8.95475063 15.8676673,8.68 16.6666667,8.68 C17.2260571,8.68 17.7543307,8.81442514 18.2211343,9.05346979 C18.4005733,9.14535841 18.572778,9.25365255 18.7356053,9.37785049 C18.9064337,9.23785389 19.0810868,9.10396044 19.2592302,8.97636508 C20.9903705,7.73643483 23.1785215,7 25.5555556,7 L25.5555556,7 Z" id="形状结合" stroke="#455A74" stroke-width="2" fill="#FFFFFF"></path>
            </g>
        </g>
    </g>
</svg>