<?xml version="1.0" encoding="UTF-8"?>
<svg width="40px" height="40px" viewBox="0 0 40 40" version="1.1" xmlns="http://www.w3.org/2000/svg" xmlns:xlink="http://www.w3.org/1999/xlink">
    <title>OLT</title>
    <defs>
        <rect id="path-1" x="0" y="0" width="40" height="40"></rect>
    </defs>
    <g id="山东移动" stroke="none" stroke-width="1" fill="none" fill-rule="evenodd">
        <g id="图标合集" transform="translate(-520.000000, -440.000000)">
            <g id="编组-13" transform="translate(520.000000, 440.000000)">
                <mask id="mask-2" fill="white">
                    <use xlink:href="#path-1"></use>
                </mask>
                <g id="蒙版" opacity="0.200000003"></g>
                <rect id="形状结合备份-4" stroke="#455A74" stroke-width="2" fill="#FFFFFF" mask="url(#mask-2)" x="5" y="5" width="30" height="30"></rect>
                <path d="M26.4142136,23.3786797 L29.5358359,26.499396 L29.5355339,23.9142136 L31.5355339,23.9142136 L31.5355339,29.9142136 L25.5355339,29.9142136 L25.5355339,27.9142136 L28.1216224,27.9136095 L25,24.7928932 L26.4142136,23.3786797 Z M12.5,15.7573593 L16.7426407,20 L12.5,24.2426407 L11.0857864,22.8284271 L12.914,20.9993593 L8.5,21 L8.5,19 L12.914,18.9993593 L11.0857864,17.1715729 L12.5,15.7573593 Z M22,16 C24.209139,16 26,17.790861 26,20 C26,22.209139 24.209139,24 22,24 C19.790861,24 18,22.209139 18,20 C18,17.790861 19.790861,16 22,16 Z M31.5355339,10.0857864 L31.5355339,16.0857864 L29.5355339,16.0857864 L29.5349299,13.499698 L26.4142136,16.6213203 L25,15.2071068 L28.1207163,12.0854844 L25.5355339,12.0857864 L25.5355339,10.0857864 L31.5355339,10.0857864 Z" id="形状结合" fill="#455A74" mask="url(#mask-2)"></path>
            </g>
        </g>
    </g>
</svg>