<?xml version="1.0" encoding="UTF-8"?>
<svg width="40px" height="40px" viewBox="0 0 40 40" version="1.1" xmlns="http://www.w3.org/2000/svg" xmlns:xlink="http://www.w3.org/1999/xlink">
    <title>ONU</title>
    <defs>
        <rect id="path-1" x="0" y="0" width="40" height="40"></rect>
    </defs>
    <g id="山东移动" stroke="none" stroke-width="1" fill="none" fill-rule="evenodd">
        <g id="图标合集" transform="translate(-600.000000, -440.000000)">
            <g id="编组-13" transform="translate(600.000000, 440.000000)">
                <mask id="mask-2" fill="white">
                    <use xlink:href="#path-1"></use>
                </mask>
                <g id="蒙版" opacity="0.200000003"></g>
                <path d="M32.0997383,5 L34,23.0524866 L34,24 L6,24 L6,23.0524866 L7.90026175,5 L32.0997383,5 Z" id="形状结合备份-3" stroke="#455A74" stroke-width="2" fill="#FFFFFF" mask="url(#mask-2)"></path>
                <rect id="形状结合备份-4" stroke="#455A74" stroke-width="2" fill="#FFFFFF" mask="url(#mask-2)" x="6" y="24" width="28" height="11"></rect>
                <path d="M15,27 L15,29 L14,29 L14,31 L10,31 L10,29 L9,29 L9,27 L15,27 Z M23,27 L23,29 L22,29 L22,31 L18,31 L18,29 L17,29 L17,27 L23,27 Z M31,27 L31,29 L30,29 L30,31 L26,31 L26,29 L25,29 L25,27 L31,27 Z" id="形状结合" fill="#455A74" mask="url(#mask-2)"></path>
                <path d="M14.144,18.112 C15.768,18.112 16.872,16.944 16.872,14.992 C16.872,13.048 15.768,11.936 14.144,11.936 C12.52,11.936 11.416,13.04 11.416,14.992 C11.416,16.944 12.52,18.112 14.144,18.112 Z M14.144,16.88 C13.36,16.88 12.88,16.152 12.88,14.992 C12.88,13.84 13.36,13.16 14.144,13.16 C14.928,13.16 15.416,13.84 15.416,14.992 C15.416,16.152 14.928,16.88 14.144,16.88 Z M19.336,18 L19.336,16.024 C19.336,15.304 19.216,14.488 19.152,13.824 L19.192,13.824 L19.776,15.128 L21.248,18 L22.704,18 L22.704,12.048 L21.344,12.048 L21.344,14.016 C21.344,14.728 21.456,15.584 21.536,16.216 L21.496,16.216 L20.912,14.896 L19.432,12.048 L17.976,12.048 L17.976,18 L19.336,18 Z M26.472,18.112 C28.056,18.112 28.856,17.208 28.856,15.2 L28.856,12.048 L27.48,12.048 L27.48,15.352 C27.48,16.48 27.12,16.88 26.472,16.88 C25.816,16.88 25.48,16.48 25.48,15.352 L25.48,12.048 L24.056,12.048 L24.056,15.2 C24.056,17.208 24.88,18.112 26.472,18.112 Z" id="ONU" fill="#455A74" fill-rule="nonzero" mask="url(#mask-2)"></path>
            </g>
        </g>
    </g>
</svg>